<svg id="internet" xmlns="http://www.w3.org/2000/svg" width="81.609" height="81.602" viewBox="0 0 81.609 81.602">
  <g id="Grupo_6" data-name="Grupo 6" transform="translate(0 0)">
    <path id="Trazado_7" data-name="Trazado 7" d="M40.757.022a40.865,40.865,0,0,0-4.379.235,38.517,38.517,0,0,0-3.949.63q-.377.079-.754.166A40.807,40.807,0,0,0,11.546,12.325q-.765.784-1.5,1.615A40.852,40.852,0,0,0,69.973,69.422q.767-.784,1.5-1.615A40.85,40.85,0,0,0,40.757.022Zm-27.4,14.346c.215-.223.438-.437.658-.654.253-.249.505-.5.764-.741.227-.212.462-.417.694-.624.263-.233.524-.466.794-.69.237-.2.481-.392.723-.586.272-.218.545-.436.825-.645.248-.187.5-.368.753-.545.282-.2.565-.409.852-.6.257-.174.517-.343.779-.511.291-.187.584-.37.88-.545q.4-.238.8-.468.452-.257.908-.5.409-.218.817-.426c.31-.157.624-.308.938-.456.272-.129.556-.259.836-.381.32-.136.644-.272.968-.409.282-.116.562-.229.847-.338.33-.125.663-.242,1-.359.285-.1.569-.2.858-.293.339-.109.681-.21,1.024-.309.287-.083.572-.169.861-.246.11-.029.221-.052.331-.08a33.788,33.788,0,0,0-8.7,14.132A45.737,45.737,0,0,1,13.238,14.5C13.283,14.456,13.321,14.408,13.361,14.368ZM11.4,16.56a47.312,47.312,0,0,0,10.334,4.112,70.662,70.662,0,0,0-2.749,18.839H2.66A38.046,38.046,0,0,1,11.4,16.56Zm0,48.627A38.051,38.051,0,0,1,2.66,42.235H18.987a70.655,70.655,0,0,0,2.749,18.839A47.345,47.345,0,0,0,11.4,65.187ZM30.933,77.71c-.275-.069-.56-.159-.843-.242-.345-.1-.69-.2-1.031-.312-.287-.093-.571-.192-.854-.291-.335-.116-.67-.234-1-.361-.283-.108-.562-.221-.843-.335l-.974-.409q-.417-.184-.829-.379c-.317-.15-.633-.3-.953-.46-.272-.136-.545-.272-.817-.421-.308-.165-.613-.334-.918-.508-.272-.151-.531-.306-.794-.464-.3-.18-.594-.365-.888-.554-.259-.165-.517-.332-.772-.5-.29-.2-.577-.4-.862-.6-.249-.178-.5-.357-.744-.545-.282-.212-.558-.432-.833-.652-.241-.192-.481-.383-.716-.58-.272-.226-.535-.462-.8-.7-.231-.206-.464-.409-.69-.618-.26-.242-.512-.494-.765-.743-.219-.217-.443-.43-.658-.652-.039-.042-.078-.086-.117-.127a45.7,45.7,0,0,1,9.331-3.592,33.8,33.8,0,0,0,8.7,14.132C31.154,77.763,31.043,77.74,30.933,77.71ZM39.4,78.894C33.569,78.066,28.461,71.985,25.247,63A69.2,69.2,0,0,1,39.4,61.339V78.894Zm0-20.279a71.711,71.711,0,0,0-15,1.789,68.122,68.122,0,0,1-2.681-18.17H39.4v16.38Zm0-19.1H21.711a68.108,68.108,0,0,1,2.681-18.17,71.735,71.735,0,0,0,15,1.789Zm0-19.1a69.129,69.129,0,0,1-14.148-1.665C28.461,9.762,33.569,3.681,39.4,2.853V20.408ZM70.112,16.56a38.051,38.051,0,0,1,8.742,22.952H62.527a70.655,70.655,0,0,0-2.749-18.839A47.361,47.361,0,0,0,70.112,16.56ZM50.571,4.036c.286.071.571.161.854.244.345.1.69.2,1.031.312.287.093.571.192.854.291.335.116.67.234,1,.361.283.108.562.221.843.335l.974.409q.417.184.829.379c.317.15.633.3.953.46.272.136.545.272.817.421.308.165.613.334.918.508.272.151.531.306.794.464.3.18.594.365.888.554.259.165.517.332.772.5.29.2.576.4.861.6.251.178.5.358.746.545.281.211.556.43.832.651.24.191.481.381.716.58.272.226.535.462.8.7.231.206.464.409.69.618.26.242.512.494.765.744.219.217.443.43.658.652.039.042.078.086.117.127a45.7,45.7,0,0,1-9.331,3.592A33.8,33.8,0,0,0,50.239,3.954C50.349,3.983,50.461,4.006,50.571,4.036ZM42.119,2.853c5.827.828,10.935,6.909,14.148,15.89a69.2,69.2,0,0,1-14.148,1.665V2.853Zm0,20.279a71.71,71.71,0,0,0,15-1.789A68.122,68.122,0,0,1,59.8,39.512H42.119Zm0,19.1H59.8A68.108,68.108,0,0,1,57.123,60.4h0a71.733,71.733,0,0,0-15-1.789Zm0,36.659V61.339A69.129,69.129,0,0,1,56.267,63C53.054,71.985,47.946,78.066,42.119,78.894ZM68.154,67.38c-.215.222-.437.436-.656.652-.253.249-.507.5-.767.743-.226.211-.459.409-.69.62-.264.234-.527.468-.8.694-.238.2-.481.391-.723.584-.272.218-.545.436-.825.645-.248.187-.5.368-.753.545-.282.2-.565.409-.852.6-.257.174-.517.343-.779.509q-.437.282-.881.545c-.272.159-.532.315-.8.468q-.452.257-.91.5-.409.218-.817.426c-.31.157-.624.308-.938.456-.272.129-.556.259-.836.381-.32.136-.644.272-.968.409-.282.114-.562.229-.846.336-.332.127-.666.245-1,.361-.283.1-.566.2-.854.291-.34.11-.681.211-1.028.31-.285.084-.571.169-.858.246-.11.029-.221.052-.331.08a33.788,33.788,0,0,0,8.7-14.132,45.737,45.737,0,0,1,9.331,3.591C68.232,67.291,68.193,67.339,68.154,67.38Zm1.958-2.192a47.312,47.312,0,0,0-10.334-4.112,70.662,70.662,0,0,0,2.749-18.839H78.854A38.045,38.045,0,0,1,70.112,65.187Z" transform="translate(0 -0.022)" fill="#45deab"/>
  </g>
</svg>
