<svg id="mobile" xmlns="http://www.w3.org/2000/svg" width="51.681" height="81.602" viewBox="0 0 51.681 81.602">
  <g id="Grupo_8" data-name="Grupo 8" transform="translate(0)">
    <g id="Grupo_7" data-name="Grupo 7">
      <path id="Trazado_8" data-name="Trazado 8" d="M132.881,0H94.8A6.808,6.808,0,0,0,88,6.8v68a6.808,6.808,0,0,0,6.8,6.8h38.081a6.808,6.808,0,0,0,6.8-6.8V6.8A6.808,6.808,0,0,0,132.881,0Zm4.08,74.8a4.08,4.08,0,0,1-4.08,4.08H94.8a4.08,4.08,0,0,1-4.08-4.08v-1.36h46.241Zm0-4.08H90.72V10.88h46.241Zm0-62.562H90.72V6.8A4.08,4.08,0,0,1,94.8,2.72h38.081a4.08,4.08,0,0,1,4.08,4.08Z" transform="translate(-88)" fill="#45deab"/>
    </g>
  </g>
  <g id="Grupo_10" data-name="Grupo 10" transform="translate(19.04 4.08)">
    <g id="Grupo_9" data-name="Grupo 9">
      <path id="Trazado_9" data-name="Trazado 9" d="M204.08,24h-2.72a1.36,1.36,0,0,0,0,2.72h2.72a1.36,1.36,0,0,0,0-2.72Z" transform="translate(-200 -24)" fill="#45deab"/>
    </g>
  </g>
  <g id="Grupo_12" data-name="Grupo 12" transform="translate(25.841 4.08)">
    <g id="Grupo_11" data-name="Grupo 11">
      <path id="Trazado_10" data-name="Trazado 10" d="M246.8,24h-5.44a1.36,1.36,0,1,0,0,2.72h5.44a1.36,1.36,0,0,0,0-2.72Z" transform="translate(-240 -24)" fill="#45deab"/>
    </g>
  </g>
  <g id="Grupo_14" data-name="Grupo 14" transform="translate(20.401 74.802)">
    <g id="Grupo_13" data-name="Grupo 13">
      <path id="Trazado_11" data-name="Trazado 11" d="M217.52,440h-8.16a1.36,1.36,0,1,0,0,2.72h8.16a1.36,1.36,0,1,0,0-2.72Z" transform="translate(-208 -440)" fill="#45deab"/>
    </g>
  </g>
</svg>
