<svg xmlns="http://www.w3.org/2000/svg" width="46" height="46" viewBox="0 0 46 46">
  <g id="Grupo_5" data-name="Grupo 5" transform="translate(-1920 -538)">
    <circle id="Elipse_1" data-name="Elipse 1" cx="23" cy="23" r="23" transform="translate(1920 538)" fill="#45deab"/>
    <g id="Grupo_3" data-name="Grupo 3" transform="translate(930.917 -102.799)">
      <g id="Rectángulo_8" data-name="Rectángulo 8" transform="translate(1027.083 670.799) rotate(-90)" fill="#fff" stroke="#fff" stroke-width="1">
        <rect width="6" height="3" rx="1.5" stroke="none"/>
        <rect x="0.5" y="0.5" width="5" height="2" rx="1" fill="none"/>
      </g>
      <g id="Rectángulo_7" data-name="Rectángulo 7" transform="translate(994.083 670.799) rotate(-90)" fill="#fff" stroke="#fff" stroke-width="1">
        <rect width="6" height="3" rx="1.5" stroke="none"/>
        <rect x="0.5" y="0.5" width="5" height="2" rx="1" fill="none"/>
      </g>
      <g id="Rectángulo_4" data-name="Rectángulo 4" transform="translate(996.083 656.799)" fill="#fff" stroke="#45deab" stroke-width="1">
        <rect width="32" height="21" rx="10.5" stroke="none"/>
        <rect x="0.5" y="0.5" width="31" height="20" rx="10" fill="none"/>
      </g>
      <g id="Rectángulo_5" data-name="Rectángulo 5" transform="translate(1017.083 668.799) rotate(-90)" fill="#45deab" stroke="#45deab" stroke-width="1">
        <rect width="5" height="3" rx="1.5" stroke="none"/>
        <rect x="0.5" y="0.5" width="4" height="2" rx="1" fill="none"/>
      </g>
      <g id="Rectángulo_6" data-name="Rectángulo 6" transform="translate(1004.083 668.799) rotate(-90)" fill="#45deab" stroke="#45deab" stroke-width="1">
        <rect width="5" height="3" rx="1.5" stroke="none"/>
        <rect x="0.5" y="0.5" width="4" height="2" rx="1" fill="none"/>
      </g>
      <path id="Trazado_6" data-name="Trazado 6" d="M12,21a3.653,3.653,0,0,0,2.706,1.353A3.653,3.653,0,0,0,17.413,21" transform="translate(997.334 650.484)" fill="none" stroke="#45deab" stroke-linecap="round" stroke-linejoin="round" stroke-width="1.5"/>
      <rect id="Rectángulo_9" data-name="Rectángulo 9" width="5" height="6" rx="2.5" transform="translate(1009.083 652.799) rotate(-90)" fill="#fff"/>
      <path id="Rectángulo_10" data-name="Rectángulo 10" d="M0,0H6A1,1,0,0,1,7,1V1A1,1,0,0,1,6,2H0A0,0,0,0,1,0,2V0A0,0,0,0,1,0,0Z" transform="translate(1011.083 658.799) rotate(-90)" fill="#fff"/>
    </g>
  </g>
</svg>
